<mxfile host="app.diagrams.net" modified="2022-11-06T22:56:19.526Z" agent="5.0 (Windows NT 10.0; Win64; x64) AppleWebKit/537.36 (KHTML, like Gecko) Chrome/106.0.0.0 Safari/537.36 OPR/92.0.0.0" etag="RACHgQHc_FR7mWYhXd2z" version="20.5.1" type="github">
  <diagram id="404eWSXGiVwv__f5Z0BY" name="Page-1">
    <mxGraphModel dx="381" dy="234" grid="1" gridSize="10" guides="1" tooltips="1" connect="1" arrows="1" fold="1" page="1" pageScale="1" pageWidth="850" pageHeight="1100" math="0" shadow="0">
      <root>
        <mxCell id="0" />
        <mxCell id="1" parent="0" />
        <mxCell id="QXuSJk9ehEVPMkDH824Q-24" style="edgeStyle=orthogonalEdgeStyle;rounded=0;orthogonalLoop=1;jettySize=auto;html=1;entryX=0.5;entryY=0;entryDx=0;entryDy=0;" parent="1" source="QXuSJk9ehEVPMkDH824Q-1" target="QXuSJk9ehEVPMkDH824Q-5" edge="1">
          <mxGeometry relative="1" as="geometry">
            <Array as="points">
              <mxPoint x="390" y="80" />
              <mxPoint x="495" y="80" />
            </Array>
          </mxGeometry>
        </mxCell>
        <mxCell id="Y0JpQ4nFRurWwPssNzdd-24" style="edgeStyle=orthogonalEdgeStyle;rounded=0;orthogonalLoop=1;jettySize=auto;html=1;" edge="1" parent="1" source="QXuSJk9ehEVPMkDH824Q-1" target="Y0JpQ4nFRurWwPssNzdd-23">
          <mxGeometry relative="1" as="geometry">
            <Array as="points">
              <mxPoint x="390" y="80" />
              <mxPoint x="700" y="80" />
            </Array>
          </mxGeometry>
        </mxCell>
        <mxCell id="QXuSJk9ehEVPMkDH824Q-1" value="0.0 &lt;br&gt;Carona Amiga" style="rounded=1;whiteSpace=wrap;html=1;fillColor=#f5f5f5;gradientColor=#b3b3b3;strokeColor=#666666;" parent="1" vertex="1">
          <mxGeometry x="330" y="10" width="110" height="30" as="geometry" />
        </mxCell>
        <mxCell id="QXuSJk9ehEVPMkDH824Q-22" style="edgeStyle=orthogonalEdgeStyle;rounded=0;orthogonalLoop=1;jettySize=auto;html=1;entryX=0.5;entryY=0;entryDx=0;entryDy=0;" parent="1" target="QXuSJk9ehEVPMkDH824Q-3" edge="1">
          <mxGeometry relative="1" as="geometry">
            <mxPoint x="390.02857142857135" y="40" as="sourcePoint" />
            <Array as="points">
              <mxPoint x="390" y="80" />
              <mxPoint x="145" y="80" />
            </Array>
          </mxGeometry>
        </mxCell>
        <mxCell id="QXuSJk9ehEVPMkDH824Q-23" style="edgeStyle=orthogonalEdgeStyle;rounded=0;orthogonalLoop=1;jettySize=auto;html=1;entryX=0.5;entryY=0;entryDx=0;entryDy=0;" parent="1" target="QXuSJk9ehEVPMkDH824Q-4" edge="1">
          <mxGeometry relative="1" as="geometry">
            <mxPoint x="390.02857142857135" y="40" as="sourcePoint" />
            <Array as="points">
              <mxPoint x="390" y="80" />
              <mxPoint x="295" y="80" />
            </Array>
          </mxGeometry>
        </mxCell>
        <mxCell id="QXuSJk9ehEVPMkDH824Q-15" style="edgeStyle=orthogonalEdgeStyle;rounded=0;orthogonalLoop=1;jettySize=auto;html=1;entryX=0;entryY=0.5;entryDx=0;entryDy=0;exitX=0;exitY=0.5;exitDx=0;exitDy=0;" parent="1" source="QXuSJk9ehEVPMkDH824Q-3" target="QXuSJk9ehEVPMkDH824Q-6" edge="1">
          <mxGeometry relative="1" as="geometry">
            <Array as="points">
              <mxPoint x="80" y="135" />
              <mxPoint x="80" y="195" />
            </Array>
          </mxGeometry>
        </mxCell>
        <mxCell id="QXuSJk9ehEVPMkDH824Q-16" style="edgeStyle=orthogonalEdgeStyle;rounded=0;orthogonalLoop=1;jettySize=auto;html=1;entryX=0;entryY=0.5;entryDx=0;entryDy=0;" parent="1" source="QXuSJk9ehEVPMkDH824Q-3" target="QXuSJk9ehEVPMkDH824Q-7" edge="1">
          <mxGeometry relative="1" as="geometry">
            <Array as="points">
              <mxPoint x="80" y="135" />
              <mxPoint x="80" y="255" />
            </Array>
          </mxGeometry>
        </mxCell>
        <mxCell id="QXuSJk9ehEVPMkDH824Q-21" style="edgeStyle=orthogonalEdgeStyle;rounded=0;orthogonalLoop=1;jettySize=auto;html=1;entryX=0;entryY=0.5;entryDx=0;entryDy=0;" parent="1" source="QXuSJk9ehEVPMkDH824Q-3" target="QXuSJk9ehEVPMkDH824Q-8" edge="1">
          <mxGeometry relative="1" as="geometry">
            <Array as="points">
              <mxPoint x="80" y="135" />
              <mxPoint x="80" y="315" />
            </Array>
          </mxGeometry>
        </mxCell>
        <mxCell id="QXuSJk9ehEVPMkDH824Q-3" value="1.0 Planejamento" style="rounded=1;whiteSpace=wrap;html=1;fillColor=#f0a30a;fontColor=#000000;strokeColor=#BD7000;" parent="1" vertex="1">
          <mxGeometry x="100" y="120" width="90" height="30" as="geometry" />
        </mxCell>
        <mxCell id="QXuSJk9ehEVPMkDH824Q-25" style="edgeStyle=orthogonalEdgeStyle;rounded=0;orthogonalLoop=1;jettySize=auto;html=1;entryX=0;entryY=0.5;entryDx=0;entryDy=0;" parent="1" source="QXuSJk9ehEVPMkDH824Q-4" target="QXuSJk9ehEVPMkDH824Q-10" edge="1">
          <mxGeometry relative="1" as="geometry">
            <Array as="points">
              <mxPoint x="220" y="135" />
              <mxPoint x="220" y="195" />
            </Array>
          </mxGeometry>
        </mxCell>
        <mxCell id="QXuSJk9ehEVPMkDH824Q-26" style="edgeStyle=orthogonalEdgeStyle;rounded=0;orthogonalLoop=1;jettySize=auto;html=1;entryX=0;entryY=0.5;entryDx=0;entryDy=0;" parent="1" source="QXuSJk9ehEVPMkDH824Q-4" target="QXuSJk9ehEVPMkDH824Q-11" edge="1">
          <mxGeometry relative="1" as="geometry">
            <Array as="points">
              <mxPoint x="220" y="135" />
              <mxPoint x="220" y="325" />
            </Array>
          </mxGeometry>
        </mxCell>
        <mxCell id="QXuSJk9ehEVPMkDH824Q-4" value="2.0 Desenvolvimento" style="rounded=1;whiteSpace=wrap;html=1;fillColor=#f0a30a;fontColor=#000000;strokeColor=#BD7000;" parent="1" vertex="1">
          <mxGeometry x="240" y="120" width="110" height="30" as="geometry" />
        </mxCell>
        <mxCell id="QXuSJk9ehEVPMkDH824Q-27" style="edgeStyle=orthogonalEdgeStyle;rounded=0;orthogonalLoop=1;jettySize=auto;html=1;entryX=0;entryY=0.5;entryDx=0;entryDy=0;" parent="1" source="QXuSJk9ehEVPMkDH824Q-5" target="QXuSJk9ehEVPMkDH824Q-12" edge="1">
          <mxGeometry relative="1" as="geometry">
            <Array as="points">
              <mxPoint x="425" y="135" />
              <mxPoint x="425" y="195" />
            </Array>
          </mxGeometry>
        </mxCell>
        <mxCell id="QXuSJk9ehEVPMkDH824Q-28" style="edgeStyle=orthogonalEdgeStyle;rounded=0;orthogonalLoop=1;jettySize=auto;html=1;entryX=0;entryY=0.5;entryDx=0;entryDy=0;" parent="1" source="QXuSJk9ehEVPMkDH824Q-5" target="QXuSJk9ehEVPMkDH824Q-13" edge="1">
          <mxGeometry relative="1" as="geometry">
            <Array as="points">
              <mxPoint x="425" y="135" />
              <mxPoint x="425" y="375" />
            </Array>
          </mxGeometry>
        </mxCell>
        <mxCell id="QXuSJk9ehEVPMkDH824Q-5" value="3.0&lt;br&gt;Clouding" style="rounded=1;whiteSpace=wrap;html=1;fillColor=#f0a30a;fontColor=#000000;strokeColor=#BD7000;" parent="1" vertex="1">
          <mxGeometry x="445" y="120" width="100" height="30" as="geometry" />
        </mxCell>
        <mxCell id="QXuSJk9ehEVPMkDH824Q-6" value="1.1&lt;br&gt;Reuniões" style="rounded=1;whiteSpace=wrap;html=1;fillColor=#dae8fc;strokeColor=#6c8ebf;gradientColor=#7ea6e0;" parent="1" vertex="1">
          <mxGeometry x="100" y="180" width="100" height="30" as="geometry" />
        </mxCell>
        <mxCell id="QXuSJk9ehEVPMkDH824Q-7" value="1.2&lt;br&gt;Documentação" style="rounded=1;whiteSpace=wrap;html=1;fillColor=#dae8fc;gradientColor=#7ea6e0;strokeColor=#6c8ebf;" parent="1" vertex="1">
          <mxGeometry x="100" y="240" width="100" height="30" as="geometry" />
        </mxCell>
        <mxCell id="QXuSJk9ehEVPMkDH824Q-8" value="1.3 &lt;br&gt;Gerenciamento" style="rounded=1;whiteSpace=wrap;html=1;fillColor=#dae8fc;gradientColor=#7ea6e0;strokeColor=#6c8ebf;" parent="1" vertex="1">
          <mxGeometry x="100" y="300" width="100" height="30" as="geometry" />
        </mxCell>
        <mxCell id="Y0JpQ4nFRurWwPssNzdd-4" style="edgeStyle=orthogonalEdgeStyle;rounded=0;orthogonalLoop=1;jettySize=auto;html=1;entryX=0;entryY=0.5;entryDx=0;entryDy=0;" edge="1" parent="1" source="QXuSJk9ehEVPMkDH824Q-10" target="Y0JpQ4nFRurWwPssNzdd-2">
          <mxGeometry relative="1" as="geometry">
            <Array as="points">
              <mxPoint x="270" y="235" />
            </Array>
          </mxGeometry>
        </mxCell>
        <mxCell id="Y0JpQ4nFRurWwPssNzdd-5" style="edgeStyle=orthogonalEdgeStyle;rounded=0;orthogonalLoop=1;jettySize=auto;html=1;entryX=0;entryY=0.5;entryDx=0;entryDy=0;" edge="1" parent="1" source="QXuSJk9ehEVPMkDH824Q-10" target="Y0JpQ4nFRurWwPssNzdd-3">
          <mxGeometry relative="1" as="geometry">
            <Array as="points">
              <mxPoint x="270" y="275" />
            </Array>
          </mxGeometry>
        </mxCell>
        <mxCell id="QXuSJk9ehEVPMkDH824Q-10" value="2.1 &lt;br&gt;Autenticação" style="rounded=1;whiteSpace=wrap;html=1;fillColor=#f0a30a;strokeColor=#BD7000;fontColor=#000000;" parent="1" vertex="1">
          <mxGeometry x="240" y="180" width="100" height="30" as="geometry" />
        </mxCell>
        <mxCell id="Y0JpQ4nFRurWwPssNzdd-8" style="edgeStyle=orthogonalEdgeStyle;rounded=0;orthogonalLoop=1;jettySize=auto;html=1;entryX=0;entryY=0.5;entryDx=0;entryDy=0;" edge="1" parent="1" source="QXuSJk9ehEVPMkDH824Q-11" target="Y0JpQ4nFRurWwPssNzdd-7">
          <mxGeometry relative="1" as="geometry">
            <Array as="points">
              <mxPoint x="270" y="370" />
            </Array>
          </mxGeometry>
        </mxCell>
        <mxCell id="Y0JpQ4nFRurWwPssNzdd-9" style="edgeStyle=orthogonalEdgeStyle;rounded=0;orthogonalLoop=1;jettySize=auto;html=1;entryX=0;entryY=0.5;entryDx=0;entryDy=0;" edge="1" parent="1" source="QXuSJk9ehEVPMkDH824Q-11" target="Y0JpQ4nFRurWwPssNzdd-6">
          <mxGeometry relative="1" as="geometry">
            <Array as="points">
              <mxPoint x="270" y="420" />
            </Array>
          </mxGeometry>
        </mxCell>
        <mxCell id="Y0JpQ4nFRurWwPssNzdd-11" style="edgeStyle=orthogonalEdgeStyle;rounded=0;orthogonalLoop=1;jettySize=auto;html=1;entryX=0;entryY=0.5;entryDx=0;entryDy=0;" edge="1" parent="1" source="QXuSJk9ehEVPMkDH824Q-11" target="Y0JpQ4nFRurWwPssNzdd-10">
          <mxGeometry relative="1" as="geometry">
            <Array as="points">
              <mxPoint x="270" y="465" />
            </Array>
          </mxGeometry>
        </mxCell>
        <mxCell id="QXuSJk9ehEVPMkDH824Q-11" value="2.2 &lt;br&gt;Chat" style="rounded=1;whiteSpace=wrap;html=1;fillColor=#f0a30a;strokeColor=#BD7000;fontColor=#000000;" parent="1" vertex="1">
          <mxGeometry x="240" y="310" width="100" height="30" as="geometry" />
        </mxCell>
        <mxCell id="Y0JpQ4nFRurWwPssNzdd-15" style="edgeStyle=orthogonalEdgeStyle;rounded=0;orthogonalLoop=1;jettySize=auto;html=1;entryX=0;entryY=0.5;entryDx=0;entryDy=0;" edge="1" parent="1" source="QXuSJk9ehEVPMkDH824Q-12" target="Y0JpQ4nFRurWwPssNzdd-12">
          <mxGeometry relative="1" as="geometry">
            <Array as="points">
              <mxPoint x="475" y="235" />
            </Array>
          </mxGeometry>
        </mxCell>
        <mxCell id="Y0JpQ4nFRurWwPssNzdd-16" style="edgeStyle=orthogonalEdgeStyle;rounded=0;orthogonalLoop=1;jettySize=auto;html=1;entryX=0;entryY=0.5;entryDx=0;entryDy=0;" edge="1" parent="1" source="QXuSJk9ehEVPMkDH824Q-12" target="Y0JpQ4nFRurWwPssNzdd-13">
          <mxGeometry relative="1" as="geometry">
            <Array as="points">
              <mxPoint x="475" y="285" />
            </Array>
          </mxGeometry>
        </mxCell>
        <mxCell id="Y0JpQ4nFRurWwPssNzdd-22" style="edgeStyle=orthogonalEdgeStyle;rounded=0;orthogonalLoop=1;jettySize=auto;html=1;entryX=0;entryY=0.5;entryDx=0;entryDy=0;" edge="1" parent="1" source="QXuSJk9ehEVPMkDH824Q-12" target="Y0JpQ4nFRurWwPssNzdd-21">
          <mxGeometry relative="1" as="geometry">
            <Array as="points">
              <mxPoint x="475" y="335" />
            </Array>
          </mxGeometry>
        </mxCell>
        <mxCell id="QXuSJk9ehEVPMkDH824Q-12" value="3.1 &lt;br&gt;Docker" style="rounded=1;whiteSpace=wrap;html=1;fillColor=#f0a30a;strokeColor=#BD7000;fontColor=#000000;" parent="1" vertex="1">
          <mxGeometry x="445" y="180" width="100" height="30" as="geometry" />
        </mxCell>
        <mxCell id="Y0JpQ4nFRurWwPssNzdd-19" style="edgeStyle=orthogonalEdgeStyle;rounded=0;orthogonalLoop=1;jettySize=auto;html=1;entryX=0;entryY=0.5;entryDx=0;entryDy=0;" edge="1" parent="1" target="Y0JpQ4nFRurWwPssNzdd-17">
          <mxGeometry relative="1" as="geometry">
            <mxPoint x="475.05882352941194" y="390" as="sourcePoint" />
            <Array as="points">
              <mxPoint x="475" y="415" />
            </Array>
          </mxGeometry>
        </mxCell>
        <mxCell id="Y0JpQ4nFRurWwPssNzdd-20" style="edgeStyle=orthogonalEdgeStyle;rounded=0;orthogonalLoop=1;jettySize=auto;html=1;entryX=0;entryY=0.5;entryDx=0;entryDy=0;" edge="1" parent="1">
          <mxGeometry relative="1" as="geometry">
            <mxPoint x="475.05882352941194" y="390" as="sourcePoint" />
            <mxPoint x="495" y="465" as="targetPoint" />
            <Array as="points">
              <mxPoint x="475" y="465" />
            </Array>
          </mxGeometry>
        </mxCell>
        <mxCell id="QXuSJk9ehEVPMkDH824Q-13" value="3.2 &lt;br&gt;Azure" style="rounded=1;whiteSpace=wrap;html=1;fillColor=#f0a30a;strokeColor=#BD7000;fontColor=#000000;" parent="1" vertex="1">
          <mxGeometry x="445" y="360" width="100" height="30" as="geometry" />
        </mxCell>
        <mxCell id="Y0JpQ4nFRurWwPssNzdd-2" value="2.1.1&lt;br&gt;Login de usuário" style="rounded=1;whiteSpace=wrap;html=1;fillColor=#dae8fc;gradientColor=#7ea6e0;strokeColor=#6c8ebf;" vertex="1" parent="1">
          <mxGeometry x="290" y="220" width="110" height="30" as="geometry" />
        </mxCell>
        <mxCell id="Y0JpQ4nFRurWwPssNzdd-3" value="2.1.2&lt;br&gt;Cadastrar usuário" style="rounded=1;whiteSpace=wrap;html=1;fillColor=#dae8fc;gradientColor=#7ea6e0;strokeColor=#6c8ebf;" vertex="1" parent="1">
          <mxGeometry x="290" y="260" width="110" height="30" as="geometry" />
        </mxCell>
        <mxCell id="Y0JpQ4nFRurWwPssNzdd-6" value="2.2.2&lt;br&gt;Enviar msg para grupo de carona" style="rounded=1;whiteSpace=wrap;html=1;fillColor=#dae8fc;gradientColor=#7ea6e0;strokeColor=#6c8ebf;" vertex="1" parent="1">
          <mxGeometry x="290" y="400" width="100" height="40" as="geometry" />
        </mxCell>
        <mxCell id="Y0JpQ4nFRurWwPssNzdd-7" value="2.2.1&lt;br&gt;Enviar msg para motorista" style="rounded=1;whiteSpace=wrap;html=1;fillColor=#dae8fc;gradientColor=#7ea6e0;strokeColor=#6c8ebf;" vertex="1" parent="1">
          <mxGeometry x="290" y="350" width="100" height="40" as="geometry" />
        </mxCell>
        <mxCell id="Y0JpQ4nFRurWwPssNzdd-10" value="2.2.3&lt;br&gt;Listar msg" style="rounded=1;whiteSpace=wrap;html=1;fillColor=#dae8fc;gradientColor=#7ea6e0;strokeColor=#6c8ebf;" vertex="1" parent="1">
          <mxGeometry x="290" y="450" width="100" height="30" as="geometry" />
        </mxCell>
        <mxCell id="Y0JpQ4nFRurWwPssNzdd-12" value="3.1.1&lt;br&gt;Criação de Conta" style="rounded=1;whiteSpace=wrap;html=1;fillColor=#dae8fc;gradientColor=#7ea6e0;strokeColor=#6c8ebf;" vertex="1" parent="1">
          <mxGeometry x="495" y="220" width="100" height="30" as="geometry" />
        </mxCell>
        <mxCell id="Y0JpQ4nFRurWwPssNzdd-13" value="3.1.2&lt;br&gt;Tutoriais de aprendizado(DSC)" style="rounded=1;whiteSpace=wrap;html=1;fillColor=#dae8fc;gradientColor=#7ea6e0;strokeColor=#6c8ebf;" vertex="1" parent="1">
          <mxGeometry x="495" y="260" width="110" height="50" as="geometry" />
        </mxCell>
        <mxCell id="Y0JpQ4nFRurWwPssNzdd-17" value="3.2.1&lt;br&gt;Criação de Conta" style="rounded=1;whiteSpace=wrap;html=1;fillColor=#dae8fc;gradientColor=#7ea6e0;strokeColor=#6c8ebf;" vertex="1" parent="1">
          <mxGeometry x="495" y="400" width="100" height="30" as="geometry" />
        </mxCell>
        <mxCell id="Y0JpQ4nFRurWwPssNzdd-18" value="3.2.2&lt;br&gt;Tutoriais de aprendizado(DSC)" style="rounded=1;whiteSpace=wrap;html=1;fillColor=#dae8fc;gradientColor=#7ea6e0;strokeColor=#6c8ebf;" vertex="1" parent="1">
          <mxGeometry x="495" y="440" width="110" height="50" as="geometry" />
        </mxCell>
        <mxCell id="Y0JpQ4nFRurWwPssNzdd-21" value="3.1.3&lt;br&gt;Criação de Conta" style="rounded=1;whiteSpace=wrap;html=1;fillColor=#dae8fc;gradientColor=#7ea6e0;strokeColor=#6c8ebf;" vertex="1" parent="1">
          <mxGeometry x="495" y="320" width="100" height="30" as="geometry" />
        </mxCell>
        <mxCell id="Y0JpQ4nFRurWwPssNzdd-28" style="edgeStyle=orthogonalEdgeStyle;rounded=0;orthogonalLoop=1;jettySize=auto;html=1;entryX=0;entryY=0.5;entryDx=0;entryDy=0;" edge="1" parent="1" source="Y0JpQ4nFRurWwPssNzdd-23" target="Y0JpQ4nFRurWwPssNzdd-26">
          <mxGeometry relative="1" as="geometry">
            <Array as="points">
              <mxPoint x="630" y="135" />
              <mxPoint x="630" y="190" />
            </Array>
          </mxGeometry>
        </mxCell>
        <mxCell id="Y0JpQ4nFRurWwPssNzdd-29" style="edgeStyle=orthogonalEdgeStyle;rounded=0;orthogonalLoop=1;jettySize=auto;html=1;entryX=0;entryY=0.5;entryDx=0;entryDy=0;" edge="1" parent="1" source="Y0JpQ4nFRurWwPssNzdd-23" target="Y0JpQ4nFRurWwPssNzdd-27">
          <mxGeometry relative="1" as="geometry">
            <Array as="points">
              <mxPoint x="630" y="135" />
              <mxPoint x="630" y="325" />
            </Array>
          </mxGeometry>
        </mxCell>
        <mxCell id="Y0JpQ4nFRurWwPssNzdd-23" value="4.0&lt;br&gt;Integração" style="rounded=1;whiteSpace=wrap;html=1;fillColor=#f0a30a;fontColor=#000000;strokeColor=#BD7000;" vertex="1" parent="1">
          <mxGeometry x="650" y="120" width="100" height="30" as="geometry" />
        </mxCell>
        <mxCell id="Y0JpQ4nFRurWwPssNzdd-33" style="edgeStyle=orthogonalEdgeStyle;rounded=0;orthogonalLoop=1;jettySize=auto;html=1;entryX=0;entryY=0.5;entryDx=0;entryDy=0;" edge="1" parent="1" source="Y0JpQ4nFRurWwPssNzdd-26" target="Y0JpQ4nFRurWwPssNzdd-31">
          <mxGeometry relative="1" as="geometry">
            <Array as="points">
              <mxPoint x="680" y="235" />
            </Array>
          </mxGeometry>
        </mxCell>
        <mxCell id="Y0JpQ4nFRurWwPssNzdd-34" style="edgeStyle=orthogonalEdgeStyle;rounded=0;orthogonalLoop=1;jettySize=auto;html=1;entryX=0;entryY=0.5;entryDx=0;entryDy=0;" edge="1" parent="1" source="Y0JpQ4nFRurWwPssNzdd-26" target="Y0JpQ4nFRurWwPssNzdd-32">
          <mxGeometry relative="1" as="geometry">
            <Array as="points">
              <mxPoint x="680" y="275" />
            </Array>
          </mxGeometry>
        </mxCell>
        <mxCell id="Y0JpQ4nFRurWwPssNzdd-26" value="4.1&lt;br&gt;Continuous Integration" style="rounded=1;whiteSpace=wrap;html=1;fillColor=#f0a30a;strokeColor=#BD7000;fontColor=#000000;" vertex="1" parent="1">
          <mxGeometry x="650" y="170" width="100" height="40" as="geometry" />
        </mxCell>
        <mxCell id="Y0JpQ4nFRurWwPssNzdd-27" value="4.2&lt;br&gt;Continuous Delivery" style="rounded=1;whiteSpace=wrap;html=1;fillColor=#dae8fc;gradientColor=#7ea6e0;strokeColor=#6c8ebf;" vertex="1" parent="1">
          <mxGeometry x="650" y="305" width="100" height="40" as="geometry" />
        </mxCell>
        <mxCell id="Y0JpQ4nFRurWwPssNzdd-31" value="4.1.1&lt;br&gt;Build" style="rounded=1;whiteSpace=wrap;html=1;fillColor=#dae8fc;gradientColor=#7ea6e0;strokeColor=#6c8ebf;" vertex="1" parent="1">
          <mxGeometry x="700" y="220" width="100" height="30" as="geometry" />
        </mxCell>
        <mxCell id="Y0JpQ4nFRurWwPssNzdd-32" value="4.1.1&lt;br&gt;Test &amp;amp; Merge" style="rounded=1;whiteSpace=wrap;html=1;fillColor=#dae8fc;gradientColor=#7ea6e0;strokeColor=#6c8ebf;" vertex="1" parent="1">
          <mxGeometry x="700" y="260" width="100" height="30" as="geometry" />
        </mxCell>
      </root>
    </mxGraphModel>
  </diagram>
</mxfile>
